<?xml version="1.0" encoding="utf-8"?>
<!-- Generator: Adobe Illustrator 24.0.1, SVG Export Plug-In . SVG Version: 6.00 Build 0)  -->
<svg version="1.1" id="Layer_1" xmlns="http://www.w3.org/2000/svg" xmlns:xlink="http://www.w3.org/1999/xlink" x="0px" y="0px"
	 viewBox="0 0 211.35 211.35" style="enable-background:new 0 0 211.35 211.35;" xml:space="preserve">
<style type="text/css">
	.st0{fill:none;}
	.st1{fill:#FFFFFF;}
</style>
<rect class="st0" width="211.35" height="211.35"/>
<path class="st1" d="M183.35,35.25H28c-14.32,0-25.93,11.61-25.93,25.93v89c0,14.32,11.61,25.93,25.93,25.93h155.35
	c14.32,0,25.93-11.61,25.93-25.93v-89C209.28,46.86,197.67,35.25,183.35,35.25z M69.03,121.58c2.11,2.84,5.07,4.26,8.86,4.26
	c6.16,0,9.92-4,11.29-12.01l14.43,0.88c-0.93,7.6-3.76,13.38-8.49,17.34c-4.73,3.96-10.53,5.93-17.38,5.93
	c-8.41,0-15.24-2.9-20.5-8.7c-5.26-5.8-7.89-13.82-7.89-24.06c0-9.59,2.54-17.44,7.63-23.55c5.09-6.11,12.04-9.17,20.85-9.17
	c15.27,0,23.86,8.21,25.79,24.62L88.01,98.1c-0.22-8.97-3.72-13.45-10.49-13.45c-7.77,0-11.66,6.9-11.66,20.71
	C65.86,113.33,66.91,118.74,69.03,121.58z M128.84,121.58c2.11,2.84,5.07,4.26,8.86,4.26c6.16,0,9.92-4,11.29-12.01l14.43,0.88
	c-0.93,7.6-3.76,13.38-8.49,17.34c-4.73,3.96-10.53,5.93-17.38,5.93c-8.41,0-15.24-2.9-20.5-8.7c-5.26-5.8-7.89-13.82-7.89-24.06
	c0-9.59,2.54-17.44,7.63-23.55c5.09-6.11,12.04-9.17,20.85-9.17c15.27,0,23.86,8.21,25.79,24.62l-15.59,0.98
	c-0.22-8.97-3.72-13.45-10.49-13.45c-7.77,0-11.66,6.9-11.66,20.71C125.67,113.33,126.72,118.74,128.84,121.58z"/>
</svg>
