<?xml version="1.0" encoding="utf-8"?>
<!-- Generator: Adobe Illustrator 23.0.1, SVG Export Plug-In . SVG Version: 6.00 Build 0)  -->
<svg version="1.1" id="Layer_1" xmlns="http://www.w3.org/2000/svg" xmlns:xlink="http://www.w3.org/1999/xlink" x="0px" y="0px"
	 viewBox="0 0 56.2 52.6" style="enable-background:new 0 0 56.2 52.6;" xml:space="preserve">
<style type="text/css">
	.st0{fill:#FFFFFF;}
</style>
<path class="st0" d="M28.8,44.3c3.1,0,6.1,0,9.2,0c2.8,0,5.1-1,6.9-3.1c1.8-2.1,2.5-4.6,2-7.3c-0.8-4.3-4.5-7.2-8.9-7.2
	c-3.2,0-6.4,0-9.7,0c-0.9,0-1.7-0.4-2.3-1.2c-0.6-0.8-0.6-1.8-0.2-2.7c0.5-0.9,1.2-1.4,2.3-1.4c2,0,4,0,6,0c0.1,0,0.2-0.1,0.4-0.1
	c0-0.1-0.1-0.2-0.1-0.3c-0.5-0.7-1.1-1.4-1.6-2c-0.1-0.1-0.3-0.2-0.5-0.3c-0.8,0-1.5,0-2.3,0c-0.9,0-1.8,0-2.7,0.1
	c-3.5,0.5-5.5,4.5-3.9,7.6c1.1,2.1,2.8,3,5.1,3c3.2,0,6.4,0,9.6,0c0.5,0,0.9,0,1.4,0.1c3.1,0.7,5.1,3.6,4.7,6.8
	c-0.3,2.5-2.4,4.7-4.9,5.1c-0.9,0.1-1.9,0.1-2.8,0.1c-5.2,0-10.3,0-15.5,0c-0.2,0-0.5,0-0.6,0.2c-0.6,0.7-1.2,1.5-1.8,2.2
	c-0.2,0.2-0.1,0.3,0.2,0.4c0.1,0,0.2,0,0.4,0C22.3,44.3,25.6,44.3,28.8,44.3z"/>
<path d="M23.4,44.3c-4.2,0-8.3,0-12.6,0c-0.1,0-0.3,0-0.5,0c-0.3,0-0.4-0.3-0.3-0.5c0.8-0.9,1.6-1.9,2.3-2.9
	c0.1-0.1,0.5-0.3,0.8-0.3c6.8,0,13.4,0,20.1,0c1.2,0,2.5,0,3.6-0.1c3.2-0.5,6-3.4,6.4-6.6c0.5-4.2-1.9-7.8-6.1-8.8
	C36.5,25,36,25,35.3,25c-4.2,0-8.3,0-12.5,0c-3,0-5.3-1.3-6.6-3.9c-2.1-4,0.5-9.2,5.1-9.9c1.2-0.1,2.3-0.1,3.5-0.1c1,0,1.9,0,3,0
	c0.3,0,0.5,0.1,0.6,0.4c0.8,0.9,1.4,1.7,2.1,2.6c0.1,0.1,0.1,0.3,0.1,0.4c-0.1,0-0.3,0.1-0.5,0.1c-2.6,0-5.2,0-7.8,0
	c-1.3,0-2.3,0.6-3,1.8c-0.6,1.2-0.5,2.3,0.3,3.5c0.6,1,1.7,1.6,3,1.6c4.2,0,8.3,0,12.6,0c5.6,0,10.4,3.9,11.6,9.3
	c0.6,3.5-0.1,6.8-2.6,9.5c-2.3,2.7-5.5,4-9,4C31.3,44.3,27.3,44.3,23.4,44.3z"/>
</svg>
