<?xml version="1.0" encoding="utf-8"?>
<!-- Generator: Adobe Illustrator 24.0.1, SVG Export Plug-In . SVG Version: 6.00 Build 0)  -->
<svg version="1.1" id="Layer_1" xmlns="http://www.w3.org/2000/svg" xmlns:xlink="http://www.w3.org/1999/xlink" x="0px" y="0px"
	 viewBox="0 0 209 209" style="enable-background:new 0 0 209 209;" xml:space="preserve">
<style type="text/css">
	.st0{fill:#FFFFFF;}
</style>
<path class="st0" d="M199.1,27c-10.5,7-21,14.1-31.5,21.1c-0.7,0.5-0.9,0.9-0.8,1.8c1.1,7.5,2.2,14.9,3.1,22.4
	c0.2,1.4,0.7,2.3,1.7,3.2c3.9,3.4,4.9,9.8,2.3,14.4c-1,1.8-1.2,3.6-0.9,5.6c0.6,3.5,1.1,7,1.5,10.6c0.4,2.9-2.3,4.9-5,3.6
	c-1.5-0.7-1.7-2.2-1.9-3.6c-0.1-0.7-0.1-1.4-0.5-2.2c-0.2,0.4-0.4,0.7-0.6,1.1c-4.1,8.5-8.2,17-12.3,25.6c-1.6,3.3-4.1,5.7-7.5,7
	c-13.2,5.2-26.4,10.4-39.6,15.6c-1.3,0.5-1.6,1.1-1.6,2.4c0.1,10.8,0,21.6,0,32.4c0,2.4-0.1,4.8-0.2,7.2c-21.9,0-43.8,0-65.8,0
	c0-7.8,0-15.7,0-23.5c0-4.7,0.1-9.4,0-14.1c0-0.3-0.3-1-0.5-1c-2.1-0.1-4.3,0-6.5,0c0,13,0,25.8,0,38.7c-7.6,0-15.2,0-22.8,0
	c0-14.2,0-28.5,0-42.7c0.2-1.2,0.5-2.5,0.7-3.7c1.7-7.5,5.1-13.9,11.6-18.3c4.5-3.1,9.6-4,14.9-3.9c2.9,0,5.8,0.2,8.6,0.2
	c0.9,0,1.4,0.3,1.7,1.1c4.3,11.8,8.7,23.5,13.1,35.3c0.3,0.8,0.4,1.6,0.4,2.4c0,6.3,0,12.6,0,18.8c0,0.4,0,0.9,0,1.3
	c7.2,0,14.2,0,21.4,0c0-0.5,0-0.9,0-1.3c0-5.4-0.1-10.8,0-16.2c0-1.4,0.3-3,0.8-4.3c4.4-12.2,8.9-24.4,13.4-36.5
	c0.2-0.5,0.8-1.1,1.3-1.3c11.6-4.7,23.3-9.3,35-13.9c1.4-0.6,2.2-1.4,2.9-2.7c5-10.4,10-20.7,15.1-31c2.2-4.5,6-6.6,10.9-6.9
	c0.3,0,0.5,0,0.9-0.1c-0.6-4-1.1-8-1.7-12c-1-7.7-2-15.4-3.1-23c-0.8-6.2-1.7-12.4-2.6-18.6c-0.3-2,0.5-3.2,2.4-3.8
	c0.2-0.1,0.4-0.2,0.6-0.3c0.6,0,1.3,0,1.9,0c0.4,0.3,0.9,0.6,1.1,1c0.5,1.1,1.5,1.3,2.5,1.6c2.3,0.7,4.7,1.4,7,2.1
	c9.4,2.8,18.7,5.5,28.1,8.2C199.1,26.8,199.1,26.9,199.1,27z"/>
<path class="st0" d="M99.8,90.4c0,16-12.7,28.7-28.6,28.7c-16.1,0-28.6-13.2-28.5-28.9c0.2-15,12.5-28.3,29-28.2
	C87.2,62.1,99.8,74.8,99.8,90.4z"/>
<path class="st0" d="M92.6,127.2c-1.3,3.6-2.5,7-3.8,10.4c-2.9,7.9-5.9,15.9-8.8,23.8c-0.3,0.9-0.8,1.3-1.8,1.3
	c-4.1-0.1-8.2-0.1-12.2,0c-1,0-1.5-0.3-1.8-1.3c-4-10.9-8.1-21.8-12.2-32.8c-0.2-0.7-0.5-1.3-0.9-2.2C65,126.8,78.7,127,92.6,127.2z
	"/>
</svg>
