<?xml version="1.0" encoding="utf-8"?>
<!-- Generator: Adobe Illustrator 24.0.1, SVG Export Plug-In . SVG Version: 6.00 Build 0)  -->
<svg version="1.1" id="Layer_1" xmlns="http://www.w3.org/2000/svg" xmlns:xlink="http://www.w3.org/1999/xlink" x="0px" y="0px"
	 viewBox="0 0 1111.18 1080" style="enable-background:new 0 0 1111.18 1080;" xml:space="preserve">
<style type="text/css">
	.st0{fill:#FFFFFF;}
</style>
<path class="st0" d="M567.22,798.33c-7.61,0-15.21,0-22.82,0c-0.77-0.13-1.53-0.32-2.31-0.39c-6.64-0.64-13.3-1.04-19.91-1.93
	c-18.61-2.52-36.74-7.08-54.25-13.89c-58.72-22.84-103.98-61.6-135.83-115.86c-20.42-34.78-31.81-72.44-34.06-112.79
	c-0.11-1.91-0.52-3.81-0.79-5.72c0-5.17,0-10.33,0-15.5c0.17-0.76,0.42-1.52,0.49-2.29c0.56-6.21,0.97-12.44,1.66-18.64
	c1.88-16.95,5.64-33.49,11.09-49.64c14.99-44.42,40.08-82.26,75.08-113.32c45.73-40.58,99.03-63.28,160.38-66.31
	c0.78-0.04,1.54-0.25,2.31-0.38c5.17,0,10.33,0,15.5,0c0.77,0.13,1.53,0.33,2.31,0.39c5.57,0.45,11.16,0.76,16.72,1.33
	c15.45,1.58,30.58,4.77,45.42,9.34c74.67,22.99,136.81,79.55,166.7,151.82c10.69,25.85,17.31,52.66,18.6,80.69
	c0.03,0.62,0.26,1.23,0.4,1.85c0,8.61,0,17.22,0,25.83c-0.14,0.84-0.35,1.67-0.42,2.52c-0.5,5.64-0.75,11.31-1.48,16.92
	c-2.43,18.55-6.97,36.59-13.48,54.13c-23.89,64.4-73.51,118.32-136.05,147.75c-29.46,13.86-60.42,21.93-92.97,23.72
	C568.75,797.99,567.99,798.2,567.22,798.33z M344.46,542.26c0.09,2.35,0.23,6.87,0.45,11.38c0.72,14.37,2.91,28.53,6.55,42.44
	c10.87,41.58,32.11,76.85,64.75,104.91c37.61,32.32,81.68,48.27,130.97,50.39c11.05,0.47,22.09,0.07,33.1-1.12
	c13.37-1.44,26.53-3.91,39.38-7.87c53.33-16.41,94.08-48.65,121.34-97.43c17.94-32.11,26.07-66.89,26.37-103.55
	c0.15-18.51-1.91-36.8-6.37-54.78c-9.73-39.21-28.79-73.13-58.2-100.92c-35.7-33.74-78.5-51.77-127.2-56.22
	c-12.24-1.12-24.5-1.11-36.76-0.19c-15.14,1.13-30.06,3.58-44.6,7.91c-56.39,16.82-98.76,50.96-126.12,103.16
	C351.78,471.53,344.56,505,344.46,542.26z"/>
<path class="st0" d="M588.41,628.33c2.3,1.35,4.45,2.62,6.68,3.93c-0.15,0.42-0.22,0.77-0.39,1.07
	c-6.52,11.21-13.75,21.91-22.7,31.37c-6.54,6.91-13.79,12.89-22.45,17c-6.12,2.91-12.55,4.53-19.33,4.69
	c-4.69,0.11-9.3-0.46-13.71-2.17c-9.93-3.85-16.24-12.94-16.35-23.6c-0.07-6,1.15-11.82,2.81-17.54
	c7.3-25.24,14.66-50.47,21.97-75.71c3.1-10.71,6.18-21.42,9.17-32.16c1.17-4.19,1.89-8.48,2.21-12.84c0.39-5.3-2.04-8.92-6.49-11.39
	c-2.24-1.25-4.73-1.7-7.26-1.74c-2.39-0.04-4.78,0.08-7.17,0.13c-0.24,0-0.47-0.04-0.95-0.08c0.57-1.77,1.09-3.44,1.63-5.1
	c0.95-2.94,0.96-2.89,4.06-3.39c10.22-1.64,20.44-3.31,30.66-4.97c10.22-1.66,20.46-3.19,30.65-5.01
	c5.56-0.99,11.11-0.68,16.68-0.76c0.17,0,0.35,0.08,0.69,0.15c-0.14,0.59-0.25,1.17-0.41,1.73
	c-11.26,39.08-22.54,78.16-33.78,117.25c-3.23,11.24-6.41,22.5-9.55,33.77c-0.69,2.47-1.1,5.02-1.59,7.55
	c-0.55,2.88,0.15,5.35,2.52,7.22c1.32,1.05,2.79,1.45,4.48,1.11c2.05-0.4,3.77-1.39,5.36-2.7c4.19-3.45,7.83-7.44,11.09-11.75
	c3.44-4.54,6.68-9.24,10-13.87C587.39,629.87,587.82,629.2,588.41,628.33z"/>
<path class="st0" d="M616.49,425.43c0.06,16.75-13.26,30.15-30.04,30.29c-16.92,0.15-30.1-14.31-30.18-30.02
	c-0.09-15.75,12.63-30.4,29.91-30.43C603.1,395.26,616.43,408.46,616.49,425.43z"/>
</svg>
