<?xml version="1.0" encoding="utf-8"?>
<!-- Generator: Adobe Illustrator 23.0.1, SVG Export Plug-In . SVG Version: 6.00 Build 0)  -->
<svg version="1.1" id="Layer_1" xmlns="http://www.w3.org/2000/svg" xmlns:xlink="http://www.w3.org/1999/xlink" x="0px" y="0px"
	 viewBox="0 0 53 52.6" style="enable-background:new 0 0 53 52.6;" xml:space="preserve">
<path d="M26.5,46.2c-11,0-19.9-8.9-19.9-19.9c0-11,8.9-19.9,19.9-19.9s19.9,8.9,19.9,19.9S37.5,46.2,26.5,46.2z M26.5,10.5
	c-8.7,0-15.8,7.1-15.8,15.8s7.1,15.8,15.8,15.8S42.3,35,42.3,26.3S35.2,10.5,26.5,10.5z"/>
<g>
	<path d="M26.3,28.4c-0.7,0-1.3-0.6-1.3-1.3V15.3c0-0.7,0.6-1.3,1.3-1.3s1.3,0.6,1.3,1.3v11.8C27.6,27.8,27,28.4,26.3,28.4z"/>
</g>
<g>
	<path d="M32.1,33.7c-0.3,0-0.6-0.1-0.8-0.3l-5.8-5.3c-0.5-0.5-0.6-1.3-0.1-1.8s1.3-0.6,1.8-0.1l5.8,5.3c0.5,0.5,0.6,1.3,0.1,1.8
		C32.8,33.5,32.4,33.7,32.1,33.7z"/>
</g>
</svg>
