<?xml version="1.0" encoding="utf-8"?>
<!-- Generator: Adobe Illustrator 23.0.1, SVG Export Plug-In . SVG Version: 6.00 Build 0)  -->
<svg version="1.1" id="Layer_1" xmlns="http://www.w3.org/2000/svg" xmlns:xlink="http://www.w3.org/1999/xlink" x="0px" y="0px"
	 viewBox="0 0 56.2 52.6" style="enable-background:new 0 0 56.2 52.6;" xml:space="preserve">
<g>
	<g>
		<g>
			<path d="M28.1,5.4c-11.6,0-20.9,9.3-20.9,20.9c0,11.6,9.3,20.9,20.9,20.9c11.6,0,20.9-9.3,20.9-20.9C49,14.7,39.7,5.4,28.1,5.4z
				 M28.1,43.9c-9.7,0-17.6-7.9-17.6-17.6c0-9.7,7.9-17.6,17.6-17.6c9.7,0,17.6,7.9,17.6,17.6C45.7,36,37.8,43.9,28.1,43.9z"/>
		</g>
	</g>
	<g>
		<g>
			<path d="M28.1,15.9c-0.9,0-1.6,0.7-1.6,1.6v10.5c0,0.9,0.7,1.6,1.6,1.6c0.9,0,1.6-0.7,1.6-1.6V17.6C29.7,16.7,29,15.9,28.1,15.9z
				"/>
		</g>
	</g>
	<g>
		<g>
			<circle cx="28.1" cy="33.9" r="2.2"/>
		</g>
	</g>
</g>
</svg>
