<?xml version="1.0" encoding="utf-8"?>
<!-- Generator: Adobe Illustrator 23.0.1, SVG Export Plug-In . SVG Version: 6.00 Build 0)  -->
<svg version="1.1" id="Layer_1" xmlns="http://www.w3.org/2000/svg" xmlns:xlink="http://www.w3.org/1999/xlink" x="0px" y="0px"
	 viewBox="0 0 297 358.5" style="enable-background:new 0 0 297 358.5;" xml:space="preserve">
<style type="text/css">
	.st0{fill:#FFFFFF;}
</style>
<title>icon_placeholder-video</title>
<path class="st0" d="M253.5,253.5l-105,105l-105-105l0,0c-58-58-58-152,0-210s152-58,210,0S311.5,195.5,253.5,253.5
	C253.5,253.5,253.5,253.5,253.5,253.5z"/>
<path d="M192.5,169.2c-0.3,3.8-0.7,7.5-1.5,11.2c-2.3,9.3-11.2,16.6-20.9,16.6c-19.7,0.2-39.6,0.2-59.3,0
	c-11.8-0.2-21.6-10.6-21.6-22.4v-44.1c-0.1-12.5,10-22.7,22.5-22.8c0.2,0,0.3,0,0.5,0h55.5c14.3,0,23.8,9.7,24,23.8
	c0,1.5,0.2,2.7,0.2,5c7.9-4.6,15.3-8.7,22.6-12.8c6.8-3.9,9.3-2.5,9.3,5.4v47.9c0,7-2.7,8.5-8.7,5.2c-7.5-4.1-14.9-8.5-22.4-12.8
	C192.9,169,192.7,169,192.5,169.2z"/>
<path d="M663.8,381.9c-0.7,0.2-1.5,0.3-2.2,0.2c-0.2,0-0.2-0.5-0.5-0.7c0.7-0.2,1.5-0.3,2.2-0.2
	C663.4,381.4,663.6,381.6,663.8,381.9z"/>
</svg>
