<?xml version="1.0" encoding="utf-8"?>
<!-- Generator: Adobe Illustrator 23.0.2, SVG Export Plug-In . SVG Version: 6.00 Build 0)  -->
<svg version="1.1" id="Layer_1" xmlns="http://www.w3.org/2000/svg" xmlns:xlink="http://www.w3.org/1999/xlink" x="0px" y="0px"
	 viewBox="0 0 95 95" style="enable-background:new 0 0 95 95;" xml:space="preserve">
<style type="text/css">
	.st0{fill:#4285F4;}
	.st1{fill:#FFFFFF;}
</style>
<circle class="st0" cx="47.5" cy="47.5" r="44.4"/>
<g>
	<path class="st1" d="M68.3,47.5c0,2.5,0,4.9,0,7.5c0,0.3,0,0.5-0.1,0.8c-0.3,0.7-1.1,1-1.8,0.6c-3.3-1.7-6.6-3.3-9.9-5
		c-0.5-0.3-0.8-0.7-0.8-1.3c0-1.7,0-3.5,0-5.2c0-0.6,0.3-1,0.8-1.3c3.2-1.6,6.5-3.3,9.7-4.9c1.1-0.5,2,0,2,1.3
		C68.3,42.5,68.3,44.9,68.3,47.5z"/>
	<path class="st1" d="M49.2,60.9h-17c-3.1,0-5.5-2.5-5.5-5.5V39.6c0-3.1,2.5-5.5,5.5-5.5h17c3.1,0,5.5,2.5,5.5,5.5v15.8
		C54.6,58.4,52.1,60.9,49.2,60.9z"/>
</g>
</svg>
