<?xml version="1.0" encoding="utf-8"?>
<!-- Generator: Adobe Illustrator 23.0.2, SVG Export Plug-In . SVG Version: 6.00 Build 0)  -->
<svg version="1.1" id="Layer_1" xmlns="http://www.w3.org/2000/svg" xmlns:xlink="http://www.w3.org/1999/xlink" x="0px" y="0px"
	 viewBox="0 0 991.7 994" style="enable-background:new 0 0 991.7 994;" xml:space="preserve">
<style type="text/css">
	.st0{opacity:0.3;fill:#557EBF;enable-background:new    ;}
	.st1{fill:#010101;}
	.st2{fill:#547DBF;stroke:#FFFFFF;stroke-width:12;stroke-miterlimit:10;}
	.st3{fill:none;stroke:#FFFFFF;stroke-width:9;stroke-miterlimit:10;}
	.st4{opacity:0.7;fill:#FFFFFF;enable-background:new    ;}
</style>
<circle class="st0" cx="495.7" cy="499.2" r="471.3"/>
<title>billboard</title>
<path class="st1" d="M930.6,697c-0.6,0.2-1.3,0.3-1.9,0.2c-0.2,0-0.2-0.4-0.4-0.6c0.6-0.2,1.3-0.3,1.9-0.2
	C930.3,696.7,930.4,696.9,930.6,697z"/>
<title>billboard</title>
<circle class="st2" cx="495.9" cy="497" r="78"/>
<circle class="st3" cx="495.7" cy="499.2" r="471.3"/>
<path class="st4" d="M495.7,364.6c37.4,0,71.3,15.2,95.8,39.7l188.8-188.8c-72.9-72.9-173.5-118-284.6-118S283.9,142.6,211,215.4
	l188.8,188.8C424.4,379.7,458.2,364.6,495.7,364.6z"/>
</svg>
