<?xml version="1.0" encoding="utf-8"?>
<!-- Generator: Adobe Illustrator 24.0.1, SVG Export Plug-In . SVG Version: 6.00 Build 0)  -->
<svg version="1.1" id="Layer_1" xmlns="http://www.w3.org/2000/svg" xmlns:xlink="http://www.w3.org/1999/xlink" x="0px" y="0px"
	 viewBox="0 0 506.7 506.7" style="enable-background:new 0 0 506.7 506.7;" xml:space="preserve">
<style type="text/css">
	.st0{fill:#A5A5A5;}
</style>
<title>icon_linked</title>
<path class="st0" d="M147.8,477.7v-9.8c0-33.7-0.3-67.9,0-101.7c0.3-18.8,11.7-30.2,30.6-30.5c18.2-0.3,36.3,0,54.6,0
	c22.2,0,33,10.7,33,33c0,33.4,0,66.8,0,99.9v9.1c23.7,0,91.4,0,113.9,0c22.4,0,28-5.6,28-27.4c0-43.5,0-87.2,0-130.7v-10.4
	c9.5,0,17.9-0.3,26.5,0c7.1,0.3,13.2-0.9,16.3-8.4c2.9-7.1-0.7-12-5.4-16.8C384.7,223.7,324.4,163.3,264,102.8c-8.8-8.8-15-8.8-24,0
	c-59.6,59.4-119.2,119.1-178.9,178.7c-4.9,4.9-8.1,10-5.3,17c2.8,6.8,8.8,8.4,15.7,8.2c7.8-0.3,15.7,0,24.4,0V318
	c0,44.3,0,88.7,0,133.1c-0.3,2.9,0,6.1,0.3,9.1c0.9,9.7,8.2,17.2,17.9,17.5C140.1,478.1,121,477.7,147.8,477.7z"/>
</svg>
