<?xml version="1.0" encoding="utf-8"?>
<!-- Generator: Adobe Illustrator 24.0.1, SVG Export Plug-In . SVG Version: 6.00 Build 0)  -->
<svg version="1.1" id="Layer_1" xmlns="http://www.w3.org/2000/svg" xmlns:xlink="http://www.w3.org/1999/xlink" x="0px" y="0px"
	 viewBox="0 0 506.7 506.7" style="enable-background:new 0 0 506.7 506.7;" xml:space="preserve">
<style type="text/css">
	.st0{fill:#FFFFFF;}
</style>
<title>icon_linked</title>
<path class="st0" d="M192.5,445.3v-9.7c0-33.7-0.3-67.9,0-101.6c0.3-18.8,11.7-30.2,30.6-30.5c18.2-0.3,36.3,0,54.6,0
	c22.2,0,33,10.7,33,33c0,33.4,0,66.8,0,99.9v9.1c23.6,0,46.4,0,68.9,0c22.4,0,28-5.6,28-27.4c0-43.5,0-87.2,0-130.7v-10.5
	c9.5,0,17.9-0.3,26.5,0c7.1,0.3,13.2-0.9,16.3-8.4c2.9-7.1-0.7-12-5.4-16.8C384.3,191.3,324,131,263.6,70.4c-8.8-8.8-15-8.8-24,0
	c-59.6,59.4-119.1,119.1-178.8,178.7c-4.9,4.9-8.1,10-5.3,17c2.8,6.8,8.8,8.4,15.7,8.2c7.8-0.3,15.7,0,24.4,0v11.3
	c0,44.2,0,88.6,0,133c-0.3,2.9,0,6.1,0.3,9.1c0.9,9.7,8.2,17.2,17.9,17.5C139.8,445.7,165.7,445.3,192.5,445.3z"/>
</svg>
