<?xml version="1.0" encoding="utf-8"?>
<!-- Generator: Adobe Illustrator 23.0.1, SVG Export Plug-In . SVG Version: 6.00 Build 0)  -->
<svg version="1.1" id="Layer_1" xmlns="http://www.w3.org/2000/svg" xmlns:xlink="http://www.w3.org/1999/xlink" x="0px" y="0px"
	 viewBox="0 0 245.1 75.4" style="enable-background:new 0 0 245.1 75.4;" xml:space="preserve">
<style type="text/css">
	.st0{display:none;}
	.st1{display:inline;}
	.st2{fill:none;stroke:#FFFFFF;stroke-width:9;stroke-miterlimit:10;}
	.st3{fill:#FFFFFF;}
	.st4{fill:#FFFFFF;stroke:#000000;stroke-width:12;stroke-linecap:round;stroke-miterlimit:10;}
	.st5{fill:none;stroke:#000000;stroke-width:4;stroke-miterlimit:10;}
	.st6{fill:none;stroke:#000000;stroke-width:10;stroke-miterlimit:10;}
	.st7{fill:none;stroke:#000000;stroke-width:8;stroke-linecap:round;stroke-miterlimit:10;}
	.st8{fill:none;stroke:#000000;stroke-width:5;stroke-linecap:round;stroke-miterlimit:10;}
	.st9{fill:none;stroke:#000000;stroke-width:2;stroke-linecap:round;stroke-miterlimit:10;}
</style>
<g id="background" class="st0">
	<rect x="-14.5" y="-25.9" class="st1" width="274.1" height="134.7"/>
</g>
<g>
	<path class="st2" d="M226.5,66.2c-3.3,1.8-7,2.9-11,2.9c-12.5,0-22.7-10.2-22.7-22.7s10.2-22.7,22.7-22.7s22.7,10.2,22.7,22.7"/>
	<g>
		<polyline class="st3" points="-1008.7,-1187.6 -966.1,-1252.4 -922.6,-1190.9 -977.5,-1190.9 -965.6,-1212.2 		"/>
		<path d="M-1008.7-1187.6c3.1-5.7,6.4-11.3,9.6-16.9l4.9-8.4l5-8.3c3.3-5.6,6.7-11,10.1-16.5c3.4-5.5,6.8-11,10.3-16.4l2.5-3.9
			l2.8,3.8c7.4,10.1,14.7,20.3,22,30.6l10.8,15.4c3.6,5.1,7.1,10.3,10.7,15.5l3.5,5.2l-6.2-0.1l-13.7-0.3l-13.7-0.4
			c-4.6-0.1-9.2-0.3-13.7-0.5c-4.6-0.2-9.2-0.3-13.7-0.6l-2.6-0.1l1.3-2.1l3.2-5.2c1.1-1.7,2.2-3.4,3.3-5.2l3.3-5.1l3.4-5.1
			l-2.6,5.5l-2.6,5.5c-0.9,1.8-1.8,3.7-2.7,5.5l-2.7,5.5l-1.3-2.2c4.6-0.2,9.2-0.4,13.7-0.6c4.6-0.2,9.2-0.4,13.7-0.5l13.7-0.4
			l13.7-0.3l-2.6,5.1c-3.7-5.1-7.4-10.1-11-15.2l-10.9-15.3c-7.2-10.3-14.4-20.6-21.5-30.9l5.2-0.1c-3.7,5.3-7.3,10.7-11,15.9
			c-3.7,5.3-7.4,10.6-11.2,15.8l-5.6,7.9l-5.7,7.8C-1000.8-1198-1004.7-1192.8-1008.7-1187.6z"/>
	</g>
	<polyline class="st4" points="-900.3,-1172.3 -831.1,-1283 -762,-1172.3 -801,-1172.3 -826,-1212.6 	"/>
	<g>
		<g>
			<polyline id="SVGID_1_" class="st5" points="-912.1,-953.9 -868,-1024.6 -798.8,-913.9 -837.9,-913.9 -862.8,-954.2 
				-912.1,-953.9 			"/>
		</g>
	</g>
	<line class="st5" x1="-936.6" y1="-915.1" x2="-921.6" y2="-939.2"/>
	<line class="st6" x1="-868" y1="-1024.6" x2="-798.8" y2="-913.9"/>
	<text transform="matrix(1 0 0 1 -776.8618 -932.3796)" style="font-family:'ArialRoundedMTBold'; font-size:50.2026px;">licefit</text>
	<text transform="matrix(1 0 0 1 -745.1201 -1166.8)" style="font-family:'ArialRoundedMTBold'; font-size:66.5894px;">licefit</text>
	<path class="st7" d="M-850.4-778.7c10.9-20,31.3-34.3,55.6-36.5c38.7-3.4,72.9,25.2,76.4,63.9c3.4,38.7-25.2,72.9-63.9,76.4
		c-31.1,2.8-59.2-15.1-70.9-42.3"/>
	<path class="st8" d="M-835-730.2c-4.5-15.3-1.5-32.6,9.5-45.7c17.5-20.9,48.7-23.7,69.7-6.2c20.9,17.5,23.7,48.7,6.2,69.7
		c-14.1,16.8-36.9,21.9-56.2,14.2"/>
	<path class="st9" d="M-799.8-720.5c-7.7-4.2-13.3-12.1-14.1-21.6c-1.3-15,9.8-28.3,24.8-29.6s28.3,9.8,29.6,24.8
		c1.1,12.1-5.9,23-16.4,27.5"/>
	<path class="st9" d="M-570.9-765.8"/>
	<g>
		<path d="M2858.3-99.6c4.4-19.5,8.1-39.2,11.1-58.9c3-19.8,5.4-39.6,7.1-59.6c3.5-39.8,4.4-79.9,2.4-119.8c-0.5-10-1.2-20-2-29.9
			c-0.9-10-1.9-19.9-3.2-29.8c-2.5-19.8-5.9-39.5-10.1-59.1c-2.1-9.8-4.5-19.5-7-29.1c-1.3-4.8-2.6-9.6-4-14.4s-2.8-9.6-4.4-14.3
			c-6.1-19-13.1-37.8-21.1-56.1c-16.1-36.5-36.3-71.3-60.4-103.1c-12.1-15.9-25.2-31-39.2-45.2c-13.9-14.3-28.8-27.7-44.4-40.1
			c-15.6-12.4-32-23.9-49-34.4l-3.2-2l-3.2-1.9l-6.4-3.8c-4.4-2.4-8.7-4.9-13.1-7.3c-8.8-4.8-17.7-9.3-26.7-13.6l-6.8-3.2l-6.8-3.1
			l-13.6-6.1l-13.9-5.6l-6.9-2.8l-7-2.6l-14.1-5.1l-14.2-4.6c-2.4-0.8-4.7-1.6-7.1-2.3l-7.2-2l-14.4-4.1l-14.5-3.6
			c-2.4-0.6-4.8-1.2-7.3-1.8l-7.3-1.5l-14.6-3.1l-14.7-2.6l-7.4-1.3l-7.4-1.1l-14.8-2.1l-14.9-1.6l-7.4-0.8c-2.5-0.2-5-0.4-7.5-0.6
			l-14.9-1.2c-5-0.3-10-0.5-14.9-0.7l-7.5-0.3c-2.5-0.1-5-0.1-7.5-0.2l-15-0.2c-2.5-0.1-5,0-7.5,0.1l-7.5,0.1c-5,0.1-10,0.1-15,0.4
			l-15,0.7c-1.2,0.1-2.5,0.1-3.7,0.2l-3.7,0.3l-7.5,0.6l-7.5,0.6l-3.7,0.3l-3.7,0.4l-14.9,1.6c-5,0.5-9.9,1.2-14.8,1.9
			c-4.9,0.7-9.9,1.3-14.8,2.1l-14.8,2.5c-2.5,0.4-4.9,0.8-7.4,1.3l-7.3,1.5l-14.7,3l-14.6,3.4l-7.3,1.7c-2.4,0.6-4.8,1.3-7.2,1.9
			l-14.5,3.9c-4.8,1.4-9.6,2.9-14.3,4.3c-4.8,1.4-9.6,2.8-14.3,4.5l-14.2,4.8c-2.4,0.8-4.7,1.6-7,2.5l-7,2.6l-7,2.6l-3.5,1.3
			l-3.5,1.4l-13.8,5.7c-4.6,1.8-9.2,4-13.7,6l-6.8,3.1c-2.3,1-4.6,2-6.8,3.1l-13.4,6.5c-2.2,1.1-4.5,2.1-6.7,3.3l-6.6,3.5
			c-4.4,2.3-8.8,4.6-13.2,7l-13,7.4l-6.5,3.7l-6.4,3.9l-12.7,7.9c-33.4,21.7-65.1,46.2-94.3,73.4c-29.3,27.1-56.5,56.4-81.1,87.8
			c-12.4,15.7-24.1,31.8-35.3,48.3c-2.8,4.2-5.6,8.3-8.3,12.5l-8,12.6l-7.8,12.8c-2.6,4.3-5,8.6-7.6,12.9
			c-9.9,17.3-19.2,34.9-27.9,52.9c-8.7,17.9-16.8,36.2-24.1,54.7c-14.7,37.1-26.8,75.2-36,113.9c-9.1,38.8-15.4,78.3-18.3,118
			c-3,39.7-2.5,79.7,1.7,119.3s12.3,78.8,24.7,116.6c12.4,37.8,29,74.2,50.1,107.9l8.1,12.5c0.7,1,1.3,2.1,2,3.1l2.2,3l4.3,6.1
			l4.3,6.1c1.5,2,3,3.9,4.5,5.9c3.1,3.9,6,7.9,9.2,11.7c12.6,15.4,26.1,30,40.3,43.9l10.9,10.2c3.7,3.3,7.5,6.6,11.2,9.8
			c3.7,3.3,7.6,6.4,11.4,9.6l5.8,4.7c1.9,1.5,3.9,3,5.9,4.5l5.9,4.5l3,2.3l3,2.2l12.2,8.6l12.4,8.3c4.2,2.7,8.4,5.3,12.6,8
			c33.9,20.9,69.8,38.5,106.8,53c18.5,7.3,37.3,13.8,56.4,19.7c9.5,2.9,19.1,5.7,28.7,8.2c9.6,2.6,19.3,5,29,7.3
			c4.9,1.1,9.7,2.2,14.6,3.3l7.3,1.6c2.4,0.5,4.9,1,7.3,1.5l14.7,2.9l14.7,2.5l7.4,1.2l7.4,1l14.8,2l14.8,1.6l7.4,0.8l7.4,0.6
			l14.9,1.2l14.9,0.9l7.5,0.4c2.5,0.1,5,0.2,7.5,0.3l14.9,0.5c19.9,0.3,39.9,0.3,59.8-0.6c10-0.3,19.9-1,29.8-1.6l3.7-0.2l3.7-0.3
			l7.4-0.6c5-0.5,9.9-0.8,14.9-1.3c9.9-1.1,19.8-2,29.7-3.4l14.8-1.9l14.8-2.3c39.4-6.1,78.4-14.5,117-24.8
			c77-20.6,152-49.1,223.1-85.1c4.5-2.2,8.9-4.5,13.3-6.9c4.4-2.3,8.8-4.6,13.2-7l13.1-7.2l6.5-3.6l6.5-3.8l12.9-7.5l12.8-7.8
			c8.6-5.1,16.9-10.6,25.3-16c4.2-2.7,8.3-5.5,12.4-8.3c4.1-2.8,8.3-5.5,12.3-8.4l12.2-8.6l3-2.2l3-2.2l6-4.5
			c16-11.8,31.5-24.3,46.8-37.1c30.3-25.9,59.1-53.5,85.3-83.4l4.9-5.6l2.5-2.8l2.4-2.9l9.5-11.5l2.4-2.9l2.3-2.9l4.6-5.9
			c3-3.9,6.2-7.8,9.1-11.8l8.8-12c2.9-4,5.7-8.2,8.5-12.2l4.2-6.1c1.4-2.1,2.7-4.2,4-6.3l8-12.5l7.6-12.8c1.3-2.1,2.6-4.2,3.8-6.4
			l3.6-6.5l3.6-6.5c1.2-2.2,2.4-4.3,3.5-6.6l6.7-13.3l1.7-3.3l1.6-3.4l3.1-6.8c2.1-4.5,4.2-9,6.1-13.6l5.8-13.7
			c1.8-4.6,3.5-9.3,5.3-13.9c0.9-2.3,1.8-4.6,2.6-7l2.4-7.1l2.4-7.1c0.8-2.4,1.6-4.7,2.3-7.1l4.2-14.3l1-3.6l0.9-3.6l1.8-7.2
			c2.6-9.6,4.3-19.4,6.4-29.1c0.9-4.9,1.6-9.8,2.4-14.7c0.4-2.4,0.8-4.9,1.2-7.3l0.9-7.4c5.2-39.3,5.5-79.3,1.4-118.7
			c-4.1-39.5-12.7-78.5-24.8-116.2c-12.2-37.8-27.9-74.5-46.5-109.6c-18.6-35.2-39.7-69-63-101.3c-11.6-16.1-23.8-32-36.4-47.4
			c-6.3-7.7-12.7-15.3-19.2-22.9c-6.5-7.5-13.1-15-19.9-22.3c-26.9-29.4-55.4-57.3-85.3-83.6c-30-26.1-61.7-50.3-94.7-72.7
			c-32.9-22.4-67.1-42.9-102.4-61.5c-35.2-18.6-71.4-35.3-108.4-50c-37-14.6-74.9-27.2-113.3-37.5c-38.5-10.3-77.5-18.2-116.9-23.7
			c-39.4-5.4-79.2-8.2-119-8.2c-79.5,0.1-159.1,11.6-234.9,35.8l-7.1,2.3l-3.5,1.1l-3.5,1.2l-14.1,4.9l-14,5.2l-3.5,1.3l-3.5,1.4
			l-6.9,2.8l-6.9,2.8l-6.8,3l-6.8,3l-3.4,1.5l-3.4,1.6l-13.5,6.3l-13.4,6.6c-4.5,2.1-8.8,4.5-13.3,6.8l-6.6,3.5
			c-2.2,1.1-4.4,2.4-6.5,3.6c-4.3,2.4-8.7,4.8-13,7.3l-12.8,7.6l-6.4,3.8l-3.2,1.9l-3.1,2l-12.5,8.1l-6.3,4
			c-2.1,1.3-4.1,2.8-6.2,4.2l-12.2,8.5c-65,45.8-122.9,101.6-172,164.1c-24.6,31.3-46.9,64.3-66.9,98.7s-37.4,70.3-52.3,107.1
			c-14.9,36.9-27.3,74.8-36.8,113.4c-0.6,2.4-1.3,4.8-1.8,7.2l-1.6,7.3l-3.2,14.6c-0.6,2.4-1,4.9-1.5,7.3l-1.4,7.3l-2.8,14.7
			l-2.3,14.7l-1.1,7.4l-0.6,3.7c-0.2,1.2-0.3,2.5-0.5,3.7l-1.8,14.8l-0.9,7.4c-0.3,2.5-0.4,4.9-0.7,7.4
			c-3.7,39.6-4.5,79.4-2.2,119.1c0.2,5,0.7,9.9,1.1,14.9c0.4,4.9,0.8,9.9,1.3,14.8l1.7,14.8l0.8,7.4l1.1,7.4l2.2,14.7
			c0.8,4.9,1.7,9.8,2.6,14.7c1.6,9.8,3.9,19.5,5.9,29.2c17.5,77.5,47.6,152.1,88.1,220.5c40.4,68.6,90.4,131.3,146.4,187.8
			c56.1,56.6,118.2,107,184.1,151.8c33,22.4,66.9,43.4,101.7,62.7c17.4,9.7,35,19,52.9,27.7c8.9,4.4,17.9,8.6,27,12.5
			c4.6,2,9.1,4.1,13.7,6l13.8,5.8c18.4,7.5,37,14.7,55.9,21.1l7,2.5c2.4,0.8,4.7,1.6,7.1,2.3l14.2,4.7l14.3,4.4l7.1,2.2l7.2,2.1
			l14.4,4.1l14.4,3.8c2.4,0.6,4.8,1.3,7.2,1.9l7.3,1.8c4.8,1.2,9.7,2.4,14.5,3.6c9.7,2.2,19.4,4.5,29.2,6.5c4.9,1,9.7,2.1,14.6,3
			l14.7,2.8c4.9,1,9.8,1.8,14.7,2.6s9.8,1.7,14.7,2.5c9.8,1.5,19.7,3.1,29.6,4.4c19.7,2.8,39.5,4.8,59.4,6.7
			c9.9,0.8,19.9,1.7,29.8,2.2c5,0.3,9.9,0.7,14.9,0.9l14.9,0.7c2.5,0.1,5,0.2,7.5,0.3l7.5,0.2l14.9,0.4l14.9,0.1
			c2.5,0,5,0.1,7.5,0.1l7.5-0.1l14.9-0.1l14.9-0.4l7.5-0.2l7.5-0.3l14.9-0.7l14.9-1l7.5-0.5l7.4-0.6l14.9-1.2l14.9-1.5l7.4-0.8
			l7.4-0.9l14.8-1.8l14.8-2.1l7.4-1l7.4-1.2l14.7-2.4l14.7-2.7l7.3-1.3c2.4-0.5,4.9-1,7.3-1.5l14.6-3l14.6-3.2l7.3-1.6
			c2.4-0.6,4.8-1.2,7.3-1.8l14.5-3.6l14.4-3.9l7.2-1.9c2.4-0.7,4.8-1.4,7.2-2.1l14.3-4.2l14.2-4.5l7.1-2.2l7.1-2.4l14.1-4.8l14-5.1
			l7-2.6l7-2.7l13.9-5.4l13.8-5.8l6.9-2.9l6.8-3l13.6-6.1l13.5-6.4c2.2-1.1,4.5-2.1,6.7-3.2l6.7-3.4c4.4-2.3,8.9-4.4,13.3-6.8
			c8.7-4.7,17.6-9.3,26.2-14.3c17.4-9.7,34.2-20.3,50.8-31.3l12.3-8.4c1-0.7,2.1-1.4,3.1-2.1l3-2.2l6-4.4c8.1-5.7,16-11.9,23.9-17.9
			c2-1.5,3.9-3.1,5.8-4.6l5.8-4.7l5.8-4.7c1.9-1.5,3.8-3.2,5.7-4.8l11.3-9.7c3.7-3.3,7.4-6.7,11.1-10l5.5-5c1.8-1.7,3.6-3.4,5.4-5.2
			l10.7-10.3l10.4-10.6l5.2-5.3l5.1-5.5l10.1-11l9.8-11.3l4.9-5.6l4.7-5.8l9.4-11.6l9.1-11.8c1.5-2,3-3.9,4.5-5.9l4.4-6l8.7-12.1
			l8.3-12.4l4.2-6.2l4-6.3l4-6.3c1.3-2.1,2.7-4.2,3.9-6.3l7.6-12.8c1.3-2.1,2.5-4.3,3.7-6.5l3.6-6.5c19.3-34.7,35.6-71.1,49-108.5
			c6.7-18.7,12.6-37.7,17.9-56.9c5.3-19.2,9.7-38.6,13.5-58.1s6.9-39.2,9.3-58.9c2.4-19.8,4.1-39.6,5.2-59.5
			c2.2-39.7,1.9-79.6-0.7-119.4c-5.2-79.5-19.2-158.4-40.5-235.2c-5.4-19.2-11.2-38.2-17.6-57.1c-6.4-18.9-13.3-37.5-21.1-55.8
			c-15.6-36.6-33.7-72.2-53.6-106.7c-19.9-34.5-41.8-67.9-65.3-100c-23.6-32.1-49-62.9-76-92.1c-54.1-58.4-115.1-110.6-182-154
			c-33.4-21.8-68.2-41.2-104.1-58.4c-18-8.6-36.2-16.5-54.7-24s-37.2-14.2-56.1-20.4c-18.9-6.2-38-11.8-57.3-16.9
			s-38.7-9.5-58.2-13.5c-39-8-78.6-13.6-118.3-17.2c-79.4-7.1-159.6-5.6-238.6,5c-79,10.7-156.8,30.5-230.6,60.6
			c-73.8,29.9-143.4,70.5-205.1,120.9l-5.8,4.7c-1.9,1.6-3.8,3.2-5.7,4.8c-3.8,3.3-7.6,6.5-11.3,9.8l-11.1,10
			c-1.9,1.7-3.6,3.4-5.4,5.1l-5.4,5.2c-1.8,1.7-3.6,3.4-5.4,5.2l-5.3,5.3l-5.3,5.3l-2.6,2.6l-2.6,2.7l-10.2,10.9l-10,11.1
			c-3.4,3.7-6.5,7.5-9.8,11.3c-3.2,3.8-6.5,7.6-9.6,11.5l-9.3,11.7l-9,11.9c-12,15.9-23.3,32.3-33.9,49.2
			c-42.6,67.4-75.6,140.8-98.3,217.2c-22.7,76.4-35.2,156-35.5,235.7c-0.1,39.9,2.8,79.7,9.2,119.1c6.4,39.3,16.1,78.1,29.5,115.7
			c13.3,37.6,30.2,73.9,50.4,108.2c20.2,34.3,43.9,66.6,70.4,96.4l10,11.1l10.4,10.7c6.8,7.3,14.2,14,21.4,20.9
			c3.6,3.5,7.4,6.7,11.1,10l11.2,9.9l11.6,9.4l5.8,4.7c1.9,1.6,4,3,5.9,4.5l11.9,9c2,1.5,4,2.9,6.1,4.4l6.1,4.3l6.1,4.3l3.1,2.1
			l3.1,2l12.5,8.2l3.1,2c1.1,0.7,2.1,1.3,3.2,2l6.4,3.9l6.4,3.9l3.2,1.9c1.1,0.6,2.2,1.2,3.2,1.9l13,7.4l3.3,1.8l3.3,1.8l6.6,3.5
			c8.8,4.8,17.8,9.1,26.7,13.5c4.5,2.2,9,4.2,13.6,6.3l6.8,3.1l6.9,3c18.3,8,36.9,15.2,55.7,21.8c37.6,13.3,76.2,23.9,115.3,32.1
			c39.1,8,78.6,14.5,118.4,18c39.8,3.6,79.8,4.6,119.7,3.1c39.9-1.6,79.7-5.7,119-12.8c39.3-7.1,78.1-17.1,115.8-30.4
			s74.2-29.8,108.9-49.6s67.5-42.8,97.9-68.8c15.2-13,29.7-26.7,43.6-41.1c13.9-14.4,27.2-29.3,39.7-44.9
			c25-31.2,47.1-64.6,66.2-99.8c19.1-35.1,35-71.9,48-109.8c6.4-18.9,12.2-38.1,17.1-57.5c4.9-19.4,9.1-38.9,12.5-58.7
			c-3.3,19.7-7.5,39.3-12.4,58.7s-10.6,38.6-16.9,57.6c-12.9,37.9-28.7,74.8-47.7,110s-41.1,68.8-66,100.1
			c-12.5,15.6-25.8,30.7-39.6,45.1c-13.9,14.4-28.4,28.2-43.6,41.3c-30.4,26.1-63.3,49.3-98,69.2s-71.4,36.6-109.1,50
			c-37.8,13.4-76.6,23.5-116,30.8c-39.4,7.2-79.3,11.5-119.4,13.1c-40,1.6-80.2,0.7-120.1-2.8c-20-1.7-39.9-4.1-59.7-7.2
			c-9.9-1.6-19.8-3.2-29.6-5c-9.9-1.8-19.7-3.6-29.5-5.7c-39.2-8.1-78-18.7-115.8-31.9c-18.9-6.6-37.6-13.8-56-21.8l-6.9-3l-6.8-3.1
			c-4.5-2.1-9.1-4.1-13.6-6.3c-9-4.4-18-8.7-26.9-13.5l-6.7-3.5l-3.3-1.8l-3.3-1.8l-13.1-7.4c-1.1-0.6-2.2-1.2-3.3-1.9l-3.2-1.9
			l-6.4-3.9l-6.4-3.9c-1.1-0.7-2.2-1.3-3.2-2l-3.2-2l-12.6-8.2l-3.2-2l-3.1-2.2l-6.2-4.3l-6.2-4.3c-2.1-1.4-4.1-2.9-6.1-4.4l-12-9
			c-2-1.5-4-3-6-4.6l-5.8-4.7l-11.7-9.5l-11.3-9.9c-3.8-3.3-7.6-6.5-11.2-10.1c-7.3-6.9-14.7-13.7-21.6-21L1707.7,97l-10.1-11.2
			c-26.7-29.9-50.6-62.4-71.1-97c-20.4-34.6-37.5-71.1-51-108.9s-23.4-76.9-29.9-116.5s-9.5-79.8-9.5-119.9
			c0.1-80.3,12.6-160.4,35.3-237.3c22.7-77,55.8-150.9,98.6-218.9c10.7-17,22.1-33.6,34.1-49.6l9.1-12l9.4-11.8
			c3.1-4,6.4-7.8,9.6-11.6s6.4-7.7,9.8-11.4l10-11.2l10.3-11l2.6-2.7l2.6-2.7l5.3-5.4l5.3-5.4c1.8-1.8,3.6-3.5,5.4-5.2l5.4-5.2
			c1.8-1.7,3.6-3.5,5.5-5.2l11.1-10.1c3.7-3.3,7.6-6.6,11.4-9.9c1.9-1.6,3.8-3.3,5.7-4.9l5.8-4.8c62.1-51,132.3-92,206.6-122.3
			c74.4-30.4,152.8-50.5,232.3-61.3c79.6-10.7,160.3-12.3,240.3-5.3c40,3.6,79.8,9.2,119.1,17.2c19.7,4,39.3,8.4,58.7,13.5
			s38.7,10.8,57.8,17s38,13,56.6,20.5s37.1,15.4,55.2,24.1c36.2,17.3,71.4,36.9,105.1,58.8c67.5,43.7,129.1,96.2,183.7,155
			c27.3,29.4,52.9,60.4,76.7,92.8c23.8,32.3,45.8,66,65.9,100.7c20.1,34.8,38.4,70.6,54.1,107.6c7.9,18.5,14.9,37.4,21.4,56.4
			s12.4,38.2,17.8,57.5c21.6,77.3,35.7,156.8,41,237c2.7,40.1,3,80.3,0.8,120.5c-1.1,20.1-2.8,40.1-5.2,60.1s-5.6,39.8-9.4,59.6
			c-3.8,19.7-8.3,39.4-13.6,58.8s-11.3,38.6-18,57.6c-13.6,37.9-30.1,74.7-49.6,109.9l-3.7,6.6c-1.2,2.2-2.4,4.4-3.7,6.6l-7.7,13
			c-1.3,2.2-2.6,4.3-4,6.4l-4,6.4l-4,6.4l-4.2,6.3l-8.4,12.5l-8.8,12.3l-4.4,6.1c-1.5,2-3.1,4-4.6,6l-9.2,12l-9.5,11.7l-4.8,5.8
			l-4.9,5.7l-9.9,11.4l-10.2,11.1l-5.1,5.5l-5.3,5.4l-10.6,10.8l-10.9,10.5c-1.8,1.7-3.6,3.5-5.4,5.2l-5.6,5.1
			c-3.7,3.4-7.4,6.8-11.2,10.1l-11.5,9.8c-1.9,1.6-3.8,3.3-5.8,4.9l-5.9,4.7l-5.9,4.7c-2,1.6-3.9,3.2-5.9,4.7
			c-8,6.1-15.9,12.3-24.1,18.1l-6.1,4.4l-3.1,2.2c-1,0.7-2.1,1.4-3.1,2.1l-12.5,8.5c-16.8,11.1-33.8,21.8-51.4,31.6
			c-8.7,5.1-17.6,9.7-26.4,14.5c-4.4,2.3-9,4.6-13.4,6.8l-6.7,3.4c-2.2,1.1-4.5,2.2-6.8,3.3l-13.6,6.5l-13.8,6.2l-6.9,3.1l-6.9,2.9
			l-13.9,5.8l-14,5.5l-7,2.7l-7.1,2.6l-14.2,5.2l-14.3,4.8l-7.1,2.4l-7.2,2.3l-14.4,4.5l-14.5,4.2c-2.4,0.7-4.8,1.4-7.2,2.1l-7.3,2
			l-14.6,3.9l-14.6,3.6c-2.4,0.6-4.9,1.2-7.3,1.8l-7.4,1.6l-14.7,3.3l-14.8,3c-2.5,0.5-4.9,1-7.4,1.5l-7.4,1.3l-14.8,2.7l-14.9,2.4
			l-7.4,1.2l-7.5,1.1l-14.9,2.1l-14.9,1.8l-7.5,0.9l-7.5,0.8l-15,1.5l-15,1.3l-7.5,0.6l-7.5,0.5l-15,1l-15,0.7l-7.5,0.3l-7.5,0.2
			l-15.1,0.4l-15.1,0.2l-7.5,0.1c-2.5,0-5,0-7.5,0l-15.1-0.1l-15.1-0.4l-7.5-0.2c-2.5-0.1-5-0.2-7.5-0.3l-15-0.7
			c-5-0.3-10-0.6-15-0.9c-10-0.5-20-1.5-30-2.3c-20-1.9-40-3.9-59.8-6.7c-10-1.3-19.9-2.9-29.8-4.4c-5-0.8-9.9-1.7-14.8-2.5
			c-4.9-0.8-9.9-1.7-14.8-2.6l-14.8-2.8c-4.9-1-9.8-2-14.7-3c-9.8-2-19.6-4.3-29.4-6.5c-4.9-1.2-9.8-2.4-14.6-3.6l-7.3-1.8
			c-2.4-0.6-4.9-1.3-7.3-1.9l-14.6-3.9l-14.5-4.1l-7.2-2.1l-7.2-2.2l-14.4-4.4l-14.3-4.7c-2.4-0.8-4.8-1.5-7.2-2.4l-7.1-2.5
			c-19-6.5-37.8-13.7-56.4-21.3l-13.9-5.8c-4.6-1.9-9.2-4-13.8-6c-9.2-4-18.4-8.3-27.4-12.7c-18.1-8.8-35.8-18.2-53.4-27.9
			c-35.1-19.5-69.3-40.6-102.5-63.2c-66.4-45.1-129-96-185.6-153s-107.1-120.3-148-189.7c-41-69.3-71.5-144.8-89.2-223.4
			c-2-9.9-4.3-19.7-6-29.6c-0.9-5-1.8-9.9-2.6-14.9l-2.2-14.9l-1.1-7.5l-0.9-7.5l-1.7-15c-0.5-5-0.8-10-1.3-15
			c-0.4-5-0.9-10-1.1-15.1c-2.3-40.2-1.5-80.5,2.3-120.6c0.2-2.5,0.4-5,0.7-7.5l0.9-7.5l1.8-15c0.2-1.2,0.3-2.5,0.5-3.7l0.6-3.7
			l1.2-7.5l2.3-14.9l2.8-14.8l1.4-7.4c0.5-2.5,0.9-4.9,1.5-7.4l3.3-14.7l1.6-7.4c0.5-2.5,1.2-4.9,1.8-7.3
			c9.7-39,22.2-77.4,37.3-114.7c15.1-37.3,32.7-73.5,53-108.3c20.2-34.8,42.8-68.1,67.7-99.8c49.7-63.2,108.2-119.7,174-166
			l12.4-8.6c2.1-1.4,4.1-2.9,6.2-4.3l6.3-4.1l12.7-8.2l3.2-2l3.2-1.9l6.5-3.9l13-7.7c4.4-2.5,8.8-4.9,13.2-7.4
			c2.2-1.2,4.4-2.5,6.6-3.6l6.7-3.5c4.5-2.3,8.9-4.7,13.4-6.9l13.5-6.7l13.7-6.3l3.4-1.6l3.5-1.5l6.9-3l6.9-3l7-2.8l7-2.8l3.5-1.4
			l3.5-1.3l14.1-5.3l14.3-4.9l3.6-1.2l3.6-1.1l7.2-2.3c76.7-24.5,157.3-36.1,237.8-36.2c40.2,0.1,80.4,2.9,120.3,8.4
			c39.8,5.6,79.3,13.6,118.1,24c38.8,10.5,77,23.2,114.3,38c37.3,14.8,73.8,31.7,109.3,50.5s70,39.5,103.2,62.1s65.2,47,95.5,73.5
			c30.2,26.5,58.9,54.7,86,84.3c6.8,7.4,13.4,14.9,20,22.5c6.5,7.6,13,15.3,19.4,23.1c12.7,15.5,24.9,31.5,36.7,47.8
			c11.7,16.3,23,33,33.6,50.1s20.7,34.5,30,52.3c18.7,35.6,34.6,72.7,47,111.1c12.3,38.3,21,77.9,25.1,118s3.8,80.7-1.5,120.7
			l-0.9,7.5c-0.4,2.5-0.8,5-1.2,7.5c-0.8,5-1.6,10-2.5,14.9c-2.1,9.9-3.9,19.8-6.5,29.5l-1.8,7.3l-0.9,3.7l-1.1,3.6l-4.2,14.5
			c-0.7,2.4-1.5,4.8-2.3,7.2l-2.4,7.2l-2.4,7.2c-0.8,2.4-1.8,4.7-2.6,7.1c-1.8,4.7-3.5,9.4-5.4,14.1l-5.9,13.9
			c-1.9,4.7-4.1,9.2-6.2,13.8l-3.2,6.9l-1.6,3.4l-1.7,3.4l-6.8,13.5c-1.1,2.3-2.4,4.4-3.6,6.7l-3.7,6.6l-3.7,6.6
			c-1.2,2.2-2.6,4.3-3.8,6.5l-7.7,13l-8.2,12.7c-1.4,2.1-2.7,4.2-4.1,6.3l-4.3,6.2c-2.9,4.1-5.7,8.3-8.6,12.4l-8.9,12.1
			c-2.9,4.1-6.1,8-9.2,12l-4.7,5.9l-2.3,3l-2.4,2.9l-9.7,11.6l-2.4,2.9l-2.5,2.8l-5,5.6c-26.6,30.2-55.7,58-86.3,84.1
			c-15.4,12.9-31,25.5-47.2,37.4l-6,4.5l-3,2.2l-3.1,2.2l-12.3,8.7c-4.1,2.9-8.3,5.7-12.4,8.5c-4.2,2.8-8.3,5.7-12.5,8.4
			c-8.5,5.4-16.8,10.9-25.5,16.1l-12.9,7.8l-13,7.6l-6.5,3.8l-6.6,3.6l-13.2,7.3c-4.4,2.4-8.9,4.7-13.3,7c-4.4,2.3-8.9,4.7-13.4,6.9
			c-71.7,36.1-147.1,64.7-224.7,85.4c-38.5,9.8-77.8,18.3-117.5,24.3l-14.9,2.3l-14.9,1.9c-9.9,1.4-19.9,2.3-29.9,3.4
			c-5,0.5-10,0.9-15,1.3l-7.5,0.6l-3.7,0.3l-3.8,0.2c-10,0.6-20,1.3-30.1,1.6c-20.1,0.9-40.1,0.9-60.2,0.6l-15-0.5
			c-2.5-0.1-5-0.1-7.5-0.3l-7.5-0.4l-15-0.9l-15-1.3l-7.5-0.6l-7.5-0.8l-15-1.7l-14.9-2.1l-7.5-1l-7.4-1.2l-14.9-2.5l-14.8-2.9
			c-2.5-0.5-4.9-0.9-7.4-1.5l-7.3-1.7c-4.9-1.1-9.8-2.2-14.7-3.3c-9.7-2.3-19.5-4.8-29.2-7.4s-19.3-5.4-28.9-8.4
			c-19.2-6-38.2-12.6-56.8-20c-37.4-14.8-73.5-32.6-107.8-53.7c-4.2-2.7-8.5-5.3-12.7-8.1l-12.5-8.4l-12.3-8.8l-3.1-2.2l-3-2.3
			l-6-4.6c-2-1.5-4-3-6-4.6l-5.8-4.8c-3.9-3.2-7.8-6.3-11.6-9.7c-3.8-3.3-7.6-6.6-11.3-10l-11-10.4c-14.4-14.1-28.1-28.9-40.8-44.5
			c-3.2-3.9-6.2-7.9-9.3-11.9c-1.5-2-3.1-4-4.6-6l-4.4-6.2l-4.4-6.2l-2.2-3.1c-0.7-1-1.4-2.1-2.1-3.2l-8.2-12.7
			c-21.3-34.2-38.1-71.1-50.5-109.3c-12.4-38.3-20.5-77.9-24.8-117.8c-4.2-40-4.6-80.3-1.6-120.3s9.4-79.8,18.6-118.8
			c18.7-78.1,48.8-153.3,89-222.8c2.5-4.3,5-8.7,7.6-13l7.9-12.8l8.1-12.7c2.7-4.2,5.6-8.3,8.3-12.5c11.3-16.6,23.2-32.8,35.6-48.5
			c24.9-31.5,52.3-60.9,81.8-88.1c29.5-27.2,61.3-51.8,95-73.6l12.8-7.9l6.4-4l6.5-3.7l13.1-7.5c4.4-2.4,8.9-4.7,13.3-7l6.7-3.5
			c2.2-1.2,4.5-2.2,6.7-3.3l13.5-6.6c2.2-1.1,4.6-2.1,6.8-3.1l6.9-3.1c4.6-2,9.1-4.2,13.8-6l13.9-5.7l3.5-1.4l3.5-1.3l7.1-2.6
			l7.1-2.6c2.4-0.9,4.7-1.7,7.1-2.5l14.3-4.8c4.7-1.6,9.6-3,14.4-4.5c4.8-1.4,9.6-2.9,14.4-4.3l14.5-3.8c2.4-0.6,4.8-1.3,7.3-1.9
			l7.3-1.7l14.6-3.4l14.7-3l7.4-1.5c2.5-0.5,4.9-0.8,7.4-1.3l14.8-2.5c4.9-0.8,9.9-1.4,14.9-2.1c5-0.7,9.9-1.4,14.9-1.9l14.9-1.6
			l3.7-0.4l3.7-0.3l7.5-0.6l7.5-0.6l3.7-0.3c1.3-0.1,2.5-0.1,3.8-0.2l15-0.7c5-0.3,10-0.3,15-0.4l7.5-0.1c2.5,0,5-0.1,7.5,0l15,0.3
			c2.5,0.1,5,0,7.5,0.2l7.5,0.4c5,0.3,10,0.5,15,0.8l15,1.2c2.5,0.2,5,0.4,7.5,0.6l7.5,0.8l14.9,1.7l14.9,2.2l7.4,1.1l7.4,1.3
			l14.8,2.7l14.7,3.1l7.3,1.6c2.4,0.6,4.9,1.2,7.3,1.8l14.6,3.6l14.5,4.1l7.2,2.1c2.4,0.7,4.8,1.5,7.2,2.3l14.3,4.7l14.1,5.2
			l7.1,2.6l7,2.8l13.9,5.7l13.7,6.2l6.8,3.1l6.8,3.3c9,4.4,18,8.9,26.7,13.7c4.4,2.3,8.7,4.9,13.1,7.3l6.5,3.8l3.2,1.9l3.2,2
			c17,10.6,33.5,22.1,49.1,34.6c15.7,12.5,30.5,26,44.5,40.4c14,14.3,27.1,29.6,39.2,45.5c24.2,32,44.3,66.9,60.4,103.6
			c8,18.4,14.9,37.2,21,56.3c1.6,4.8,2.9,9.6,4.3,14.4c1.4,4.8,2.7,9.6,4,14.5c2.5,9.7,4.8,19.4,6.9,29.2
			c4.2,19.6,7.5,39.3,9.9,59.2c1.3,9.9,2.2,19.9,3.1,29.9c0.8,10,1.5,20,1.9,29.9c1.8,40,0.8,80.1-2.8,119.9
			c-1.8,19.9-4.2,39.8-7.3,59.6C2866.5-138.7,2862.8-119.1,2858.3-99.6z"/>
	</g>
	
		<image style="overflow:visible;enable-background:new    ;" width="512" height="512" xlink:href="D:\AliceFit---Web-version\Assets\Alicefit\Textures\logo.png"  transform="matrix(1 0 0 1 -1305.8939 -1170.0103)">
	</image>
	<g>
		<path class="st3" d="M213.4,37.7l2.1,6.3l2.1-6.3h2.2l-3.4,8.9h-1.7l-3.4-8.9H213.4z"/>
		<path class="st3" d="M220.5,46.6v-8.9h4c0.4,0,0.8,0.1,1.2,0.3c0.4,0.2,0.7,0.4,0.9,0.7c0.2,0.3,0.5,0.6,0.6,1s0.2,0.7,0.2,1.1
			c0,0.3,0,0.5-0.1,0.8s-0.2,0.5-0.3,0.7s-0.3,0.4-0.5,0.6s-0.4,0.3-0.6,0.5l2,3.3h-2.3l-1.7-2.9h-1.3v2.9L220.5,46.6L220.5,46.6z
			 M222.6,42h1.9c0.2,0,0.5-0.1,0.6-0.3c0.2-0.2,0.3-0.5,0.3-0.9s-0.1-0.7-0.3-0.9s-0.4-0.3-0.7-0.3h-1.8V42z"/>
	</g>
	<ellipse class="st2" cx="29.1" cy="46.4" rx="22.7" ry="22.7"/>
	<path class="st2" d="M326.9,66.2"/>
	<path class="st2" d="M338.6,46.4"/>
	<path class="st2" d="M179.7,69.1c-12.5,0-22.7-10.2-22.7-22.7s10.2-22.7,22.7-22.7"/>
	<path class="st2" d="M97.4,46.4c0,12.5-10.2,22.7-22.7,22.7S52,58.9,52,46.4"/>
	<path class="st2" d="M157,46.4c0,12.5-10.2,22.7-22.7,22.7s-22.7-10.2-22.7-22.7"/>
	<line class="st2" x1="97.4" y1="46.4" x2="97.4" y2="1"/>
	<line class="st2" x1="111.6" y1="13.7" x2="111.6" y2="1"/>
	<line class="st2" x1="111.6" y1="46.4" x2="111.6" y2="24.9"/>
</g>
</svg>
