<?xml version="1.0" encoding="utf-8"?>
<!-- Generator: Adobe Illustrator 23.0.2, SVG Export Plug-In . SVG Version: 6.00 Build 0)  -->
<svg version="1.1" id="Layer_1" xmlns="http://www.w3.org/2000/svg" xmlns:xlink="http://www.w3.org/1999/xlink" x="0px" y="0px"
	 viewBox="0 0 506.7 506.7" style="enable-background:new 0 0 506.7 506.7;" xml:space="preserve">
<style type="text/css">
	.st0{opacity:0.37;fill:#FFFFFF;}
	.st1{fill:#4285F4;}
</style>
<circle class="st0" cx="253.4" cy="253.4" r="249.5"/>
<title>icon_linked</title>
<path class="st1" d="M209.9,376v-7c0-24.2-0.2-48.8,0-73c0.2-13.5,8.4-21.7,22-21.9c13.1-0.2,26.1,0,39.2,0c16,0,23.7,7.7,23.7,23.7
	c0,24,0,48,0,71.8v6.5c17,0,33.3,0,49.5,0c16.1,0,20.1-4,20.1-19.7c0-31.3,0-62.6,0-93.9V255c6.8,0,12.8-0.2,19,0
	c5.1,0.2,9.5-0.7,11.7-6c2.1-5.1-0.5-8.6-3.9-12.1c-43.5-43.4-86.8-86.7-130.2-130.2c-6.3-6.3-10.8-6.3-17.2,0
	c-42.8,42.7-85.6,85.6-128.5,128.4c-3.5,3.5-5.8,7.2-3.8,12.2c2,4.9,6.3,6,11.3,5.9c5.6-0.2,11.3,0,17.5,0v8.1c0,31.8,0,63.7,0,95.6
	c-0.2,2.1,0,4.4,0.2,6.5c0.7,7,5.9,12.4,12.8,12.6C172,376.3,190.6,376,209.9,376z"/>
</svg>
