<?xml version="1.0" encoding="utf-8"?>
<!-- Generator: Adobe Illustrator 23.0.1, SVG Export Plug-In . SVG Version: 6.00 Build 0)  -->
<svg version="1.1" id="Layer_1" xmlns="http://www.w3.org/2000/svg" xmlns:xlink="http://www.w3.org/1999/xlink" x="0px" y="0px"
	 viewBox="0 0 297 358.5" style="enable-background:new 0 0 297 358.5;" xml:space="preserve">
<style type="text/css">
	.st0{opacity:0.65;stroke:#000000;stroke-miterlimit:10;}
	.st1{fill:#FFFFFF;}
</style>
<circle class="st0" cx="148.5" cy="148.25" r="148.5"/>
<title>icon_placeholder-video</title>
<path d="M663.7987,381.8548c-0.7234,0.204-1.4755,0.2876-2.226,0.2473c-0.2474,0-0.2474-0.4946-0.4947-0.742
	c0.7234-0.204,1.4755-0.2876,2.2261-0.2473C663.4372,381.3799,663.6034,381.6292,663.7987,381.8548z"/>
<title>icon_play</title>
<path class="st1" d="M114.3946,150.766c0-16.1083,0.0005-32.2166,0.0016-48.3248c0.0023-7.0475,3.9954-9.4914,10.0416-5.9722
	c18.9743,11.0438,37.9216,22.1337,56.842,33.2699c8.4718,4.9594,16.95,9.9077,25.4346,14.845
	c2.6607,1.5503,5.2085,3.3914,4.4115,6.8674c-0.4526,1.8017-1.5513,3.3744-3.0873,4.4193
	c-24.608,14.5839-49.2681,29.0801-73.98,43.4885c-3.1866,1.8687-6.381,3.7251-9.5387,5.6418
	c-2.2604,1.372-4.5526,2.4108-7.1194,0.8955c-2.4572-1.4507-3.0704-3.6956-3.0537-6.4878
	C114.4439,183.1947,114.3946,166.9802,114.3946,150.766z"/>
</svg>
