<?xml version="1.0" encoding="utf-8"?>
<!-- Generator: Adobe Illustrator 24.0.1, SVG Export Plug-In . SVG Version: 6.00 Build 0)  -->
<svg version="1.1" id="Layer_1" xmlns="http://www.w3.org/2000/svg" xmlns:xlink="http://www.w3.org/1999/xlink" x="0px" y="0px"
	 viewBox="0 0 506.7 506.7" style="enable-background:new 0 0 506.7 506.7;" xml:space="preserve">
<style type="text/css">
	.st0{fill:#A5A5A5;}
</style>
<title>icon_linked</title>
<path class="st0" d="M176.1,494.5V482c0-43-0.4-86.7,0-129.8c0.4-24,14.9-38.6,39.1-38.9c23.3-0.4,46.4,0,69.7,0
	c28.4,0,42.1,13.7,42.1,42.1c0,42.7,0,85.3,0,127.6v11.6c30.2,0,59.2,0,88,0c28.6,0,35.7-7.1,35.7-35c0-55.6,0-111.3,0-166.9v-13.3
	c12.1,0,22.8-0.4,33.8,0c9.1,0.4,16.9-1.2,20.8-10.7c3.7-9.1-0.9-15.3-6.9-21.5C421.1,170.1,344.1,93.1,267,15.8
	c-11.2-11.2-19.2-11.2-30.6,0C160.3,91.7,84.2,167.9,8,244c-6.2,6.2-10.3,12.8-6.8,21.7c3.6,8.7,11.2,10.7,20.1,10.5
	c10-0.4,20.1,0,31.1,0v14.4c0,56.5,0,113.2,0,169.9c-0.4,3.7,0,7.8,0.4,11.6c1.2,12.4,10.5,22,22.8,22.4
	C108.8,495,141.8,494.5,176.1,494.5z"/>
</svg>
