<?xml version="1.0" encoding="utf-8"?>
<!-- Generator: Adobe Illustrator 23.0.1, SVG Export Plug-In . SVG Version: 6.00 Build 0)  -->
<svg version="1.1" id="Layer_1" xmlns="http://www.w3.org/2000/svg" xmlns:xlink="http://www.w3.org/1999/xlink" x="0px" y="0px"
	 viewBox="0 0 297 358.7473" style="enable-background:new 0 0 297 358.7473;" xml:space="preserve">
<style type="text/css">
	.st0{fill:#1F9CFF;}
	.st1{fill:#FFFFFF;}
</style>
<title>icon_placeholder-event</title>
<path class="st0" d="M253.5,253.5l-105,105l-105-105l0,0c-57.9958-57.9899-58.0006-152.0149-0.0107-210.0107
	S195.5042-14.5113,253.5,43.4786s58.0006,152.0149,0.0107,210.0107C253.5071,253.4929,253.5036,253.4964,253.5,253.5z"/>
<path d="M663.7987,381.8548c-0.7234,0.204-1.4755,0.2876-2.226,0.2473c-0.2474,0-0.2474-0.4946-0.4947-0.742
	c0.7234-0.204,1.4755-0.2876,2.2261-0.2473C663.4372,381.3799,663.6034,381.6292,663.7987,381.8548z"/>
<path class="st1" d="M152.6122,64.2l22.1223,52.36l56.636,4.8655c2.4571,0.2124,4.2769,2.3764,4.0645,4.8335
	c-0.0998,1.1551-0.645,2.2261-1.5202,2.9865l-42.959,37.2187l12.8734,55.3682c0.5597,2.3988-0.9312,4.7971-3.3299,5.3568
	c-1.1334,0.2644-2.3252,0.0754-3.3211-0.5268l-48.6726-29.3536l-48.6727,29.3536c-2.11,1.2729-4.8524,0.5943-6.1253-1.5157
	c-0.5998-0.9943-0.7884-2.1832-0.5257-3.3143l12.8735-55.3682l-42.9681-37.2275c-1.8629-1.6146-2.0642-4.4336-0.4496-6.2965
	c0.7614-0.8785,1.8356-1.4253,2.994-1.524l56.636-4.8654L144.39,64.2c0.9541-2.2705,3.5681-3.3377,5.8386-2.3836
	C151.3044,62.2684,152.1601,63.1242,152.6122,64.2z"/>
</svg>
