<?xml version="1.0" encoding="utf-8"?>
<!-- Generator: Adobe Illustrator 23.0.1, SVG Export Plug-In . SVG Version: 6.00 Build 0)  -->
<svg version="1.1" id="Layer_1" xmlns="http://www.w3.org/2000/svg" xmlns:xlink="http://www.w3.org/1999/xlink" x="0px" y="0px"
	 viewBox="0 0 506.7 506.7" style="enable-background:new 0 0 506.7 506.7;" xml:space="preserve">
<style type="text/css">
	.st0{fill:#1A1B21;enable-background:new    ;}
	.st1{opacity:0.6;}
	.st2{fill:#FFFFFF;}
</style>
<title>icon_linked</title>
<path class="st0" d="M0,253.4C-0.1,113.5,113.2,0.1,253.2,0s253.1,112.8,253.5,253.1c0.4,139.9-113.4,253.8-253.5,253.6
	C113.4,506.8,0,393.4,0,253.6C0,253.5,0,253.5,0,253.4z"/>
<g class="st1">
	<path class="st2" d="M87.9,271.1h30.7c8.1,61,56,108.9,117,117v30.7c0,3.3,2.7,5.9,5.9,5.9h23.6c3.3,0,5.9-2.6,5.9-5.9v-30.7
		c61-8.1,108.9-56,117-117h30.7c3.3,0,5.9-2.7,5.9-5.9v-23.6c0-3.3-2.6-5.9-5.9-5.9H388c-8.1-61-56-108.9-117-117V87.9
		c0-3.3-2.7-5.9-5.9-5.9h-23.6c-3.3,0-5.9,2.6-5.9,5.9v30.7c-61,8.1-108.9,56-117,117H87.9c-3.3,0-5.9,2.7-5.9,5.9v23.6
		C82,268.4,84.6,271.1,87.9,271.1z M253.4,152.9c55.5,0,100.4,45,100.4,100.4s-45,100.4-100.4,100.4S153,308.7,153,253.3
		S197.9,153,253.4,152.9z"/>
	<path class="st2" d="M300.6,253.4c0,26.1-21.2,47.3-47.3,47.3S206,279.5,206,253.4s21.2-47.3,47.3-47.3S300.6,227.2,300.6,253.4z"
		/>
</g>
</svg>
