<?xml version="1.0" encoding="utf-8"?>
<!-- Generator: Adobe Illustrator 23.0.1, SVG Export Plug-In . SVG Version: 6.00 Build 0)  -->
<svg version="1.1" id="Layer_1" xmlns="http://www.w3.org/2000/svg" xmlns:xlink="http://www.w3.org/1999/xlink" x="0px" y="0px"
	 viewBox="0 0 387.6 387.6" style="enable-background:new 0 0 387.6 387.6;" xml:space="preserve">
<style type="text/css">
	.st0{fill:none;}
	.st1{fill:#FFFFFF;}
</style>
<circle class="st0" cx="193.8" cy="193.8" r="193.8"/>
<path class="st1" d="M165.2,98.4c0.4,0,0.8,0,1.2,0c2.8,1.3,3.7,3.7,3.7,6.6c0,12.1,0.1,24.1,0,36.2c0,2.7,0.7,3.7,3.5,3.7
	c11.3,0.1,22.4,2,33.2,5.2c36.7,10.7,65.3,32.3,85.6,64.8c10.7,17.1,17.5,35.8,20.2,55.8c0.6,4.4,1.2,8.7,1.8,13.1
	c0,1.6,0,3.2-0.1,4.8c0,0.2-0.8,0.4-1.2,0.6c-0.4-0.7-0.7-1.4-1.2-2c-15.6-18.6-34.3-33.1-56.4-43.3c-22.8-10.5-46.8-15.4-71.8-14.9
	c-4.5,0.1-8.9,0.6-13.5,1c0,1.6,0,2.7,0,3.8c0,11.9,0,23.7-0.2,35.6c0,1.8-1.3,4.3-2.8,5.1c-1.3,0.7-3.7-0.5-5.5-1.2
	c-1.1-0.4-1.9-1.5-2.7-2.3c-6.5-6.2-12.9-12.4-19.3-18.6c-18-17.4-36.1-34.8-54.1-52.1c-3.3-3.2-6.7-6.4-7.8-11.1c0-1.6,0-3.2,0-4.8
	c1.2-3.8,3.8-6.7,6.6-9.4c24.9-24,49.7-48,74.6-71.9C160.7,101,163,99.8,165.2,98.4z"/>
</svg>
